<?xml version="1.0" encoding="utf-8"?>
<!-- Generated by IcoMoon.io -->
<svg version="1.1" xmlns="http://www.w3.org/2000/svg" xmlns:xlink="http://www.w3.org/1999/xlink" width="752" height="32" viewBox="0 0 752 32">
<svg id="icon-telegram-svgrepo-com" width="32" height="32" viewBox="0 0 32 32" x="0" y="0">
<path d="M26.070 3.996c-0.336 0.016-0.652 0.113-0.934 0.223h-0.004c-0.285 0.113-1.641 0.684-3.699 1.547-2.059 0.867-4.73 1.992-7.383 3.109-5.297 2.23-10.504 4.426-10.504 4.426l0.063-0.023c0 0-0.359 0.117-0.734 0.375-0.191 0.125-0.402 0.297-0.586 0.566s-0.332 0.684-0.277 1.109c0.090 0.723 0.559 1.156 0.895 1.395 0.34 0.242 0.664 0.355 0.664 0.355h0.008l4.883 1.645c0.219 0.703 1.488 4.875 1.793 5.836 0.18 0.574 0.355 0.934 0.574 1.207 0.105 0.141 0.23 0.258 0.379 0.352 0.059 0.035 0.121 0.063 0.184 0.086 0.020 0.012 0.039 0.016 0.063 0.020l-0.051-0.012c0.016 0.004 0.027 0.016 0.039 0.020 0.039 0.012 0.066 0.016 0.117 0.023 0.773 0.234 1.395-0.246 1.395-0.246l0.035-0.027 2.883-2.625 4.832 3.707 0.109 0.047c1.008 0.441 2.027 0.195 2.566-0.238 0.543-0.438 0.754-0.996 0.754-0.996l0.035-0.090 3.734-19.129c0.105-0.473 0.133-0.914 0.016-1.344s-0.418-0.832-0.781-1.047c-0.367-0.219-0.73-0.285-1.066-0.27zM25.969 6.047c-0.004 0.063 0.008 0.055-0.020 0.176v0.012l-3.699 18.93c-0.016 0.027-0.043 0.086-0.117 0.145-0.078 0.063-0.141 0.102-0.465-0.027l-5.91-4.531-3.57 3.254 0.75-4.789c0 0 9.258-8.629 9.656-9s0.266-0.449 0.266-0.449c0.027-0.453-0.602-0.133-0.602-0.133l-12.176 7.543-0.004-0.020-5.836-1.969c-0.004 0-0.012-0.004-0.016-0.004 0.004 0 0.031-0.012 0.031-0.012l0.031-0.016 0.031-0.012c0 0 5.211-2.195 10.508-4.426 2.652-1.117 5.324-2.242 7.379-3.109 2.055-0.863 3.574-1.496 3.66-1.531 0.082-0.031 0.043-0.031 0.102-0.031z"></path>
</svg>
<svg id="icon-outlook-logo-svgrepo-com" width="32" height="32" viewBox="0 0 32 32" x="48" y="0">
<path d="M32 11.84c0-0.586-0.42-1.063-0.934-1.063h-9.178v2.124h7.263l-4.764 3.926-2.499-2.048v2.695l1.96 1.589c0.319 0.258 0.766 0.258 1.084-0.002l5.2-4.215v5.614h-8.244v2.124h9.178c0.514 0 0.934-0.475 0.934-1.063v-8.739c0-0.025-0.002-0.049-0.004-0.074 0.002-0.025 0.004-0.051 0.004-0.074 0 0 0-0.793 0-0.793z"></path>
<path d="M9.995 20.387c1.341 0 2.2-1.767 2.2-4.403 0-2.187-0.635-4.403-2.2-4.403-1.655 0-2.267 2.245-2.267 4.403 0 2.515 0.793 4.403 2.267 4.403z"></path>
<path d="M0 29.296l19.922 1.462v-29.512l-19.922 1.753v26.298zM10.087 8.348c3.402 0 5.671 3.084 5.671 7.486 0 5.36-2.882 7.816-5.852 7.816-3.244 0-5.739-2.814-5.739-7.545 0.002-4.735 2.361-7.758 5.921-7.758z"></path>
</svg>
<svg id="icon-logo-github-svgrepo-com" width="32" height="32" viewBox="0 0 32 32" x="96" y="0">
<path d="M16 2c-7.731 0.001-13.998 6.269-13.998 14 0 6.146 3.961 11.368 9.47 13.251l0.099 0.029c0.7 0.13 1-0.3 1-0.67s0-1.21 0-2.38c-3.89 0.84-4.71-1.88-4.71-1.88-0.284-0.873-0.857-1.585-1.604-2.041l-0.016-0.009c-1.27-0.86 0.1-0.85 0.1-0.85 0.92 0.134 1.691 0.677 2.132 1.436l0.008 0.014c0.523 0.925 1.5 1.539 2.62 1.539 0.536 0 1.039-0.141 1.475-0.387l-0.015 0.008c0.060-0.738 0.386-1.39 0.879-1.869l0.001-0.001c-3.1-0.36-6.37-1.56-6.37-6.92-0-0.026-0.001-0.057-0.001-0.088 0-1.42 0.548-2.712 1.444-3.675l-0.003 0.003c-0.183-0.498-0.289-1.074-0.289-1.674 0-0.733 0.158-1.43 0.441-2.057l-0.013 0.032s1.17-0.38 3.85 1.43c1.049-0.298 2.255-0.469 3.5-0.469s2.451 0.171 3.594 0.491l-0.094-0.022c2.67-1.81 3.84-1.43 3.84-1.43 0.271 0.596 0.429 1.292 0.429 2.026 0 0.6-0.106 1.176-0.3 1.709l0.011-0.035c0.893 0.961 1.441 2.252 1.441 3.672 0 0.031-0 0.062-0.001 0.093l0-0.005c0 5.38-3.27 6.56-6.39 6.91 0.593 0.601 0.959 1.427 0.959 2.339 0 0.088-0.003 0.176-0.010 0.263l0.001-0.011c0 1.87 0 3.38 0 3.84s0.25 0.81 1 0.67c5.607-1.912 9.568-7.133 9.568-13.28 0-7.732-6.268-14-14-14-0.017 0-0.034 0-0.051 0h0.003z"></path>
</svg>
<svg id="icon-instagram-2" width="32" height="32" viewBox="0 0 32 32" x="144" y="0">
<path d="M31.969 9.408c-0.075-1.7-0.35-2.869-0.744-3.882-0.406-1.075-1.031-2.038-1.85-2.838-0.8-0.813-1.769-1.444-2.832-1.844-1.019-0.394-2.182-0.669-3.882-0.744-1.713-0.081-2.257-0.1-6.601-0.1s-4.888 0.019-6.595 0.094c-1.7 0.075-2.869 0.35-3.882 0.744-1.075 0.406-2.038 1.031-2.838 1.85-0.813 0.8-1.444 1.769-1.844 2.832-0.394 1.019-0.669 2.182-0.744 3.882-0.081 1.713-0.1 2.257-0.1 6.601s0.019 4.888 0.094 6.595c0.075 1.7 0.35 2.869 0.744 3.882 0.406 1.075 1.038 2.038 1.85 2.838 0.8 0.813 1.769 1.444 2.832 1.844 1.019 0.394 2.182 0.669 3.882 0.744 1.706 0.075 2.25 0.094 6.595 0.094s4.888-0.019 6.595-0.094c1.7-0.075 2.869-0.35 3.882-0.744 2.151-0.831 3.851-2.532 4.682-4.682 0.394-1.019 0.669-2.182 0.744-3.882 0.075-1.707 0.094-2.25 0.094-6.595s-0.006-4.888-0.081-6.595zM29.087 22.473c-0.069 1.563-0.331 2.407-0.55 2.969-0.538 1.394-1.644 2.5-3.038 3.038-0.563 0.219-1.413 0.481-2.969 0.55-1.688 0.075-2.194 0.094-6.464 0.094s-4.782-0.019-6.464-0.094c-1.563-0.069-2.407-0.331-2.969-0.55-0.694-0.256-1.325-0.663-1.838-1.194-0.531-0.519-0.938-1.144-1.194-1.838-0.219-0.563-0.481-1.413-0.55-2.969-0.075-1.688-0.094-2.194-0.094-6.464s0.019-4.782 0.094-6.464c0.069-1.563 0.331-2.407 0.55-2.969 0.256-0.694 0.663-1.325 1.2-1.838 0.519-0.531 1.144-0.938 1.838-1.194 0.563-0.219 1.413-0.481 2.969-0.55 1.688-0.075 2.194-0.094 6.464-0.094 4.276 0 4.782 0.019 6.464 0.094 1.563 0.069 2.407 0.331 2.969 0.55 0.694 0.256 1.325 0.662 1.838 1.194 0.531 0.519 0.938 1.144 1.194 1.838 0.219 0.563 0.481 1.413 0.55 2.969 0.075 1.688 0.094 2.194 0.094 6.464s-0.019 4.77-0.094 6.458z"></path>
<path d="M16.059 7.783c-4.538 0-8.22 3.682-8.22 8.22s3.682 8.22 8.22 8.22c4.538 0 8.22-3.682 8.22-8.22s-3.682-8.22-8.22-8.22zM16.059 21.335c-2.944 0-5.332-2.388-5.332-5.332s2.388-5.332 5.332-5.332c2.944 0 5.332 2.388 5.332 5.332s-2.388 5.332-5.332 5.332z"></path>
<path d="M26.524 7.458c0 1.060-0.859 1.919-1.919 1.919s-1.919-0.859-1.919-1.919c0-1.060 0.859-1.919 1.919-1.919s1.919 0.859 1.919 1.919z"></path>
</svg>
</svg>
